<svg xmlns="http://www.w3.org/2000/svg" viewBox="0 0 872 152" width="872" height="152">
<rect width="100%" height="100%" fill="#0f0524"/>
<rect x="20" y="20" width="14" height="14" rx="2" fill="#ff79c6" opacity="0.9"/>
<rect x="20" y="36" width="14" height="14" rx="2" fill="#ff79c6" opacity="0.9"/>
<rect x="20" y="52" width="14" height="14" rx="2" fill="#ff79c6" opacity="0.9"/>
<rect x="20" y="68" width="14" height="14" rx="2" fill="#ff79c6" opacity="0.9"/>
<rect x="20" y="84" width="14" height="14" rx="2" fill="#ff79c6" opacity="0.9"/>
<rect x="20" y="100" width="14" height="14" rx="2" fill="#ff79c6" opacity="0.9"/>
<rect x="20" y="116" width="14" height="14" rx="2" fill="#ff79c6" opacity="0.9"/>
<rect x="36" y="20" width="14" height="14" rx="2" fill="#ff79c6" opacity="0.9"/>
<rect x="36" y="36" width="14" height="14" rx="2" fill="#ff79c6" opacity="0.9"/>
<rect x="36" y="52" width="14" height="14" rx="2" fill="#ff79c6" opacity="0.9"/>
<rect x="36" y="68" width="14" height="14" rx="2" fill="#ff79c6" opacity="0.9"/>
<rect x="36" y="84" width="14" height="14" rx="2" fill="#ff79c6" opacity="0.9"/>
<rect x="36" y="100" width="14" height="14" rx="2" fill="#ff79c6" opacity="0.9"/>
<rect x="36" y="116" width="14" height="14" rx="2" fill="#ff79c6" opacity="0.9"/>
<rect x="52" y="20" width="14" height="14" rx="2" fill="#ff79c6" opacity="0.9"/>
<rect x="52" y="36" width="14" height="14" rx="2" fill="#ff79c6" opacity="0.9"/>
<rect x="52" y="52" width="14" height="14" rx="2" fill="#ff79c6" opacity="0.9"/>
<rect x="52" y="68" width="14" height="14" rx="2" fill="#ff79c6" opacity="0.9"/>
<rect x="52" y="84" width="14" height="14" rx="2" fill="#ff79c6" opacity="0.9"/>
<rect x="52" y="100" width="14" height="14" rx="2" fill="#ff79c6" opacity="0.9"/>
<rect x="52" y="116" width="14" height="14" rx="2" fill="#ff79c6" opacity="0.9"/>
<rect x="68" y="20" width="14" height="14" rx="2" fill="#ff79c6" opacity="0.9"/>
<rect x="68" y="36" width="14" height="14" rx="2" fill="#ff79c6" opacity="0.9"/>
<rect x="68" y="52" width="14" height="14" rx="2" fill="#ff79c6" opacity="0.9"/>
<rect x="68" y="68" width="14" height="14" rx="2" fill="#ff79c6" opacity="0.9"/>
<rect x="68" y="84" width="14" height="14" rx="2" fill="#ff79c6" opacity="0.9"/>
<rect x="68" y="100" width="14" height="14" rx="2" fill="#ff79c6" opacity="0.9"/>
<rect x="68" y="116" width="14" height="14" rx="2" fill="#ff79c6" opacity="0.9"/>
<rect x="84" y="20" width="14" height="14" rx="2" fill="#ff79c6" opacity="0.9"/>
<rect x="84" y="36" width="14" height="14" rx="2" fill="#ff79c6" opacity="0.9"/>
<rect x="84" y="52" width="14" height="14" rx="2" fill="#ff79c6" opacity="0.9"/>
<rect x="84" y="68" width="14" height="14" rx="2" fill="#ff79c6" opacity="0.9"/>
<rect x="84" y="84" width="14" height="14" rx="2" fill="#ff79c6" opacity="0.9"/>
<rect x="84" y="100" width="14" height="14" rx="2" fill="#ff79c6" opacity="0.9"/>
<rect x="84" y="116" width="14" height="14" rx="2" fill="#ff79c6" opacity="0.9"/>
<rect x="100" y="20" width="14" height="14" rx="2" fill="#ff79c6" opacity="0.9"/>
<rect x="100" y="36" width="14" height="14" rx="2" fill="#ff79c6" opacity="0.9"/>
<rect x="100" y="52" width="14" height="14" rx="2" fill="#ff79c6" opacity="0.9"/>
<rect x="100" y="68" width="14" height="14" rx="2" fill="#ff79c6" opacity="0.9"/>
<rect x="100" y="84" width="14" height="14" rx="2" fill="#ff79c6" opacity="0.9"/>
<rect x="100" y="100" width="14" height="14" rx="2" fill="#ff79c6" opacity="0.9"/>
<rect x="100" y="116" width="14" height="14" rx="2" fill="#ff79c6" opacity="0.9"/>
<rect x="116" y="20" width="14" height="14" rx="2" fill="#ff79c6" opacity="0.9"/>
<rect x="116" y="36" width="14" height="14" rx="2" fill="#ff79c6" opacity="0.9"/>
<rect x="116" y="52" width="14" height="14" rx="2" fill="#ff79c6" opacity="0.9"/>
<rect x="116" y="68" width="14" height="14" rx="2" fill="#ff79c6" opacity="0.9"/>
<rect x="116" y="84" width="14" height="14" rx="2" fill="#ff79c6" opacity="0.9"/>
<rect x="116" y="100" width="14" height="14" rx="2" fill="#ff79c6" opacity="0.9"/>
<rect x="116" y="116" width="14" height="14" rx="2" fill="#ff79c6" opacity="0.9"/>
<rect x="132" y="20" width="14" height="14" rx="2" fill="#ff79c6" opacity="0.9"/>
<rect x="132" y="36" width="14" height="14" rx="2" fill="#ff79c6" opacity="0.9"/>
<rect x="132" y="52" width="14" height="14" rx="2" fill="#ff79c6" opacity="0.9"/>
<rect x="132" y="68" width="14" height="14" rx="2" fill="#ff79c6" opacity="0.9"/>
<rect x="132" y="84" width="14" height="14" rx="2" fill="#ff79c6" opacity="0.9"/>
<rect x="132" y="100" width="14" height="14" rx="2" fill="#ff79c6" opacity="0.9"/>
<rect x="132" y="116" width="14" height="14" rx="2" fill="#ff79c6" opacity="0.9"/>
<rect x="148" y="20" width="14" height="14" rx="2" fill="#ff79c6" opacity="0.9"/>
<rect x="148" y="36" width="14" height="14" rx="2" fill="#ff79c6" opacity="0.9"/>
<rect x="148" y="52" width="14" height="14" rx="2" fill="#ff79c6" opacity="0.9"/>
<rect x="148" y="68" width="14" height="14" rx="2" fill="#ff79c6" opacity="0.9"/>
<rect x="148" y="84" width="14" height="14" rx="2" fill="#ff79c6" opacity="0.9"/>
<rect x="148" y="100" width="14" height="14" rx="2" fill="#ff79c6" opacity="0.9"/>
<rect x="148" y="116" width="14" height="14" rx="2" fill="#ff79c6" opacity="0.9"/>
<rect x="164" y="20" width="14" height="14" rx="2" fill="#ff79c6" opacity="0.9"/>
<rect x="164" y="36" width="14" height="14" rx="2" fill="#ff79c6" opacity="0.9"/>
<rect x="164" y="52" width="14" height="14" rx="2" fill="#ff79c6" opacity="0.9"/>
<rect x="164" y="68" width="14" height="14" rx="2" fill="#ff79c6" opacity="0.9"/>
<rect x="164" y="84" width="14" height="14" rx="2" fill="#ff79c6" opacity="0.9"/>
<rect x="164" y="100" width="14" height="14" rx="2" fill="#ff79c6" opacity="0.9"/>
<rect x="164" y="116" width="14" height="14" rx="2" fill="#ff79c6" opacity="0.9"/>
<rect x="180" y="20" width="14" height="14" rx="2" fill="#ff79c6" opacity="0.9"/>
<rect x="180" y="36" width="14" height="14" rx="2" fill="#ff79c6" opacity="0.9"/>
<rect x="180" y="52" width="14" height="14" rx="2" fill="#ff79c6" opacity="0.9"/>
<rect x="180" y="68" width="14" height="14" rx="2" fill="#ff79c6" opacity="0.9"/>
<rect x="180" y="84" width="14" height="14" rx="2" fill="#ff79c6" opacity="0.9"/>
<rect x="180" y="100" width="14" height="14" rx="2" fill="#ff79c6" opacity="0.9"/>
<rect x="180" y="116" width="14" height="14" rx="2" fill="#ff79c6" opacity="0.9"/>
<rect x="196" y="20" width="14" height="14" rx="2" fill="#ff79c6" opacity="0.9"/>
<rect x="196" y="36" width="14" height="14" rx="2" fill="#ff79c6" opacity="0.9"/>
<rect x="196" y="52" width="14" height="14" rx="2" fill="#ff79c6" opacity="0.9"/>
<rect x="196" y="68" width="14" height="14" rx="2" fill="#ff79c6" opacity="0.9"/>
<rect x="196" y="84" width="14" height="14" rx="2" fill="#ff79c6" opacity="0.9"/>
<rect x="196" y="100" width="14" height="14" rx="2" fill="#ff79c6" opacity="0.9"/>
<rect x="196" y="116" width="14" height="14" rx="2" fill="#ff79c6" opacity="0.9"/>
<rect x="212" y="20" width="14" height="14" rx="2" fill="#ff79c6" opacity="0.9"/>
<rect x="212" y="36" width="14" height="14" rx="2" fill="#44337a"/>
<rect x="212" y="52" width="14" height="14" rx="2" fill="#ff79c6"/>
<rect x="212" y="68" width="14" height="14" rx="2" fill="#ff79c6"/>
<rect x="212" y="84" width="14" height="14" rx="2" fill="#8b5cf6"/>
<rect x="212" y="100" width="14" height="14" rx="2" fill="#44337a"/>
<rect x="212" y="116" width="14" height="14" rx="2" fill="#44337a"/>
<rect x="228" y="20" width="14" height="14" rx="2" fill="#ff79c6"/>
<rect x="228" y="36" width="14" height="14" rx="2" fill="#44337a"/>
<rect x="228" y="52" width="14" height="14" rx="2" fill="#8b5cf6"/>
<rect x="228" y="68" width="14" height="14" rx="2" fill="#44337a"/>
<rect x="228" y="84" width="14" height="14" rx="2" fill="#44337a"/>
<rect x="228" y="100" width="14" height="14" rx="2" fill="#44337a"/>
<rect x="228" y="116" width="14" height="14" rx="2" fill="#44337a"/>
<rect x="244" y="20" width="14" height="14" rx="2" fill="#5b21b6"/>
<rect x="244" y="36" width="14" height="14" rx="2" fill="#44337a"/>
<rect x="244" y="52" width="14" height="14" rx="2" fill="#44337a"/>
<rect x="244" y="68" width="14" height="14" rx="2" fill="#5b21b6"/>
<rect x="244" y="84" width="14" height="14" rx="2" fill="#44337a"/>
<rect x="244" y="100" width="14" height="14" rx="2" fill="#44337a"/>
<rect x="244" y="116" width="14" height="14" rx="2" fill="#8b5cf6"/>
<rect x="260" y="20" width="14" height="14" rx="2" fill="#44337a"/>
<rect x="260" y="36" width="14" height="14" rx="2" fill="#44337a"/>
<rect x="260" y="52" width="14" height="14" rx="2" fill="#44337a"/>
<rect x="260" y="68" width="14" height="14" rx="2" fill="#5b21b6"/>
<rect x="260" y="84" width="14" height="14" rx="2" fill="#44337a"/>
<rect x="260" y="100" width="14" height="14" rx="2" fill="#44337a"/>
<rect x="260" y="116" width="14" height="14" rx="2" fill="#44337a"/>
<rect x="276" y="20" width="14" height="14" rx="2" fill="#5b21b6"/>
<rect x="276" y="36" width="14" height="14" rx="2" fill="#44337a"/>
<rect x="276" y="52" width="14" height="14" rx="2" fill="#44337a"/>
<rect x="276" y="68" width="14" height="14" rx="2" fill="#44337a"/>
<rect x="276" y="84" width="14" height="14" rx="2" fill="#44337a"/>
<rect x="276" y="100" width="14" height="14" rx="2" fill="#44337a"/>
<rect x="276" y="116" width="14" height="14" rx="2" fill="#44337a"/>
<rect x="292" y="20" width="14" height="14" rx="2" fill="#44337a"/>
<rect x="292" y="36" width="14" height="14" rx="2" fill="#44337a"/>
<rect x="292" y="52" width="14" height="14" rx="2" fill="#44337a"/>
<rect x="292" y="68" width="14" height="14" rx="2" fill="#44337a"/>
<rect x="292" y="84" width="14" height="14" rx="2" fill="#44337a"/>
<rect x="292" y="100" width="14" height="14" rx="2" fill="#44337a"/>
<rect x="292" y="116" width="14" height="14" rx="2" fill="#44337a"/>
<rect x="308" y="20" width="14" height="14" rx="2" fill="#5b21b6"/>
<rect x="308" y="36" width="14" height="14" rx="2" fill="#44337a"/>
<rect x="308" y="52" width="14" height="14" rx="2" fill="#5b21b6"/>
<rect x="308" y="68" width="14" height="14" rx="2" fill="#44337a"/>
<rect x="308" y="84" width="14" height="14" rx="2" fill="#ff79c6"/>
<rect x="308" y="100" width="14" height="14" rx="2" fill="#ff79c6"/>
<rect x="308" y="116" width="14" height="14" rx="2" fill="#ff79c6"/>
<rect x="324" y="20" width="14" height="14" rx="2" fill="#44337a"/>
<rect x="324" y="36" width="14" height="14" rx="2" fill="#44337a"/>
<rect x="324" y="52" width="14" height="14" rx="2" fill="#8b5cf6"/>
<rect x="324" y="68" width="14" height="14" rx="2" fill="#44337a"/>
<rect x="324" y="84" width="14" height="14" rx="2" fill="#44337a"/>
<rect x="324" y="100" width="14" height="14" rx="2" fill="#44337a"/>
<rect x="324" y="116" width="14" height="14" rx="2" fill="#44337a"/>
<rect x="340" y="20" width="14" height="14" rx="2" fill="#44337a"/>
<rect x="340" y="36" width="14" height="14" rx="2" fill="#5b21b6"/>
<rect x="340" y="52" width="14" height="14" rx="2" fill="#44337a"/>
<rect x="340" y="68" width="14" height="14" rx="2" fill="#8b5cf6"/>
<rect x="340" y="84" width="14" height="14" rx="2" fill="#44337a"/>
<rect x="340" y="100" width="14" height="14" rx="2" fill="#44337a"/>
<rect x="340" y="116" width="14" height="14" rx="2" fill="#44337a"/>
<rect x="356" y="20" width="14" height="14" rx="2" fill="#44337a"/>
<rect x="356" y="36" width="14" height="14" rx="2" fill="#8b5cf6"/>
<rect x="356" y="52" width="14" height="14" rx="2" fill="#ff79c6"/>
<rect x="356" y="68" width="14" height="14" rx="2" fill="#44337a"/>
<rect x="356" y="84" width="14" height="14" rx="2" fill="#44337a"/>
<rect x="356" y="100" width="14" height="14" rx="2" fill="#44337a"/>
<rect x="356" y="116" width="14" height="14" rx="2" fill="#44337a"/>
<rect x="372" y="20" width="14" height="14" rx="2" fill="#44337a"/>
<rect x="372" y="36" width="14" height="14" rx="2" fill="#5b21b6"/>
<rect x="372" y="52" width="14" height="14" rx="2" fill="#44337a"/>
<rect x="372" y="68" width="14" height="14" rx="2" fill="#44337a"/>
<rect x="372" y="84" width="14" height="14" rx="2" fill="#44337a"/>
<rect x="372" y="100" width="14" height="14" rx="2" fill="#44337a"/>
<rect x="372" y="116" width="14" height="14" rx="2" fill="#44337a"/>
<rect x="388" y="20" width="14" height="14" rx="2" fill="#44337a"/>
<rect x="388" y="36" width="14" height="14" rx="2" fill="#8b5cf6"/>
<rect x="388" y="52" width="14" height="14" rx="2" fill="#44337a"/>
<rect x="388" y="68" width="14" height="14" rx="2" fill="#5b21b6"/>
<rect x="388" y="84" width="14" height="14" rx="2" fill="#ff79c6"/>
<rect x="388" y="100" width="14" height="14" rx="2" fill="#44337a"/>
<rect x="388" y="116" width="14" height="14" rx="2" fill="#44337a"/>
<rect x="404" y="20" width="14" height="14" rx="2" fill="#44337a"/>
<rect x="404" y="36" width="14" height="14" rx="2" fill="#44337a"/>
<rect x="404" y="52" width="14" height="14" rx="2" fill="#44337a"/>
<rect x="404" y="68" width="14" height="14" rx="2" fill="#44337a"/>
<rect x="404" y="84" width="14" height="14" rx="2" fill="#44337a"/>
<rect x="404" y="100" width="14" height="14" rx="2" fill="#5b21b6"/>
<rect x="404" y="116" width="14" height="14" rx="2" fill="#5b21b6"/>
<rect x="420" y="20" width="14" height="14" rx="2" fill="#44337a"/>
<rect x="420" y="36" width="14" height="14" rx="2" fill="#44337a"/>
<rect x="420" y="52" width="14" height="14" rx="2" fill="#8b5cf6"/>
<rect x="420" y="68" width="14" height="14" rx="2" fill="#44337a"/>
<rect x="420" y="84" width="14" height="14" rx="2" fill="#44337a"/>
<rect x="420" y="100" width="14" height="14" rx="2" fill="#44337a"/>
<rect x="420" y="116" width="14" height="14" rx="2" fill="#5b21b6"/>
<rect x="436" y="20" width="14" height="14" rx="2" fill="#44337a"/>
<rect x="436" y="36" width="14" height="14" rx="2" fill="#44337a"/>
<rect x="436" y="52" width="14" height="14" rx="2" fill="#44337a"/>
<rect x="436" y="68" width="14" height="14" rx="2" fill="#44337a"/>
<rect x="436" y="84" width="14" height="14" rx="2" fill="#44337a"/>
<rect x="436" y="100" width="14" height="14" rx="2" fill="#44337a"/>
<rect x="436" y="116" width="14" height="14" rx="2" fill="#44337a"/>
<rect x="452" y="20" width="14" height="14" rx="2" fill="#44337a"/>
<rect x="452" y="36" width="14" height="14" rx="2" fill="#44337a"/>
<rect x="452" y="52" width="14" height="14" rx="2" fill="#44337a"/>
<rect x="452" y="68" width="14" height="14" rx="2" fill="#44337a"/>
<rect x="452" y="84" width="14" height="14" rx="2" fill="#44337a"/>
<rect x="452" y="100" width="14" height="14" rx="2" fill="#44337a"/>
<rect x="452" y="116" width="14" height="14" rx="2" fill="#5b21b6"/>
<rect x="468" y="20" width="14" height="14" rx="2" fill="#8b5cf6"/>
<rect x="468" y="36" width="14" height="14" rx="2" fill="#44337a"/>
<rect x="468" y="52" width="14" height="14" rx="2" fill="#8b5cf6"/>
<rect x="468" y="68" width="14" height="14" rx="2" fill="#44337a"/>
<rect x="468" y="84" width="14" height="14" rx="2" fill="#44337a"/>
<rect x="468" y="100" width="14" height="14" rx="2" fill="#ff79c6"/>
<rect x="468" y="116" width="14" height="14" rx="2" fill="#44337a"/>
<rect x="484" y="20" width="14" height="14" rx="2" fill="#44337a"/>
<rect x="484" y="36" width="14" height="14" rx="2" fill="#44337a"/>
<rect x="484" y="52" width="14" height="14" rx="2" fill="#44337a"/>
<rect x="484" y="68" width="14" height="14" rx="2" fill="#44337a"/>
<rect x="484" y="84" width="14" height="14" rx="2" fill="#44337a"/>
<rect x="484" y="100" width="14" height="14" rx="2" fill="#ff79c6"/>
<rect x="484" y="116" width="14" height="14" rx="2" fill="#44337a"/>
<rect x="500" y="20" width="14" height="14" rx="2" fill="#44337a"/>
<rect x="500" y="36" width="14" height="14" rx="2" fill="#8b5cf6"/>
<rect x="500" y="52" width="14" height="14" rx="2" fill="#44337a"/>
<rect x="500" y="68" width="14" height="14" rx="2" fill="#44337a"/>
<rect x="500" y="84" width="14" height="14" rx="2" fill="#44337a"/>
<rect x="500" y="100" width="14" height="14" rx="2" fill="#44337a"/>
<rect x="500" y="116" width="14" height="14" rx="2" fill="#ff79c6"/>
<rect x="516" y="20" width="14" height="14" rx="2" fill="#44337a"/>
<rect x="516" y="36" width="14" height="14" rx="2" fill="#44337a"/>
<rect x="516" y="52" width="14" height="14" rx="2" fill="#8b5cf6"/>
<rect x="516" y="68" width="14" height="14" rx="2" fill="#44337a"/>
<rect x="516" y="84" width="14" height="14" rx="2" fill="#ff79c6"/>
<rect x="516" y="100" width="14" height="14" rx="2" fill="#44337a"/>
<rect x="516" y="116" width="14" height="14" rx="2" fill="#44337a"/>
<rect x="532" y="20" width="14" height="14" rx="2" fill="#ff79c6"/>
<rect x="532" y="36" width="14" height="14" rx="2" fill="#44337a"/>
<rect x="532" y="52" width="14" height="14" rx="2" fill="#44337a"/>
<rect x="532" y="68" width="14" height="14" rx="2" fill="#44337a"/>
<rect x="532" y="84" width="14" height="14" rx="2" fill="#44337a"/>
<rect x="532" y="100" width="14" height="14" rx="2" fill="#44337a"/>
<rect x="532" y="116" width="14" height="14" rx="2" fill="#44337a"/>
<rect x="548" y="20" width="14" height="14" rx="2" fill="#44337a"/>
<rect x="548" y="36" width="14" height="14" rx="2" fill="#44337a"/>
<rect x="548" y="52" width="14" height="14" rx="2" fill="#44337a"/>
<rect x="548" y="68" width="14" height="14" rx="2" fill="#44337a"/>
<rect x="548" y="84" width="14" height="14" rx="2" fill="#ff79c6"/>
<rect x="548" y="100" width="14" height="14" rx="2" fill="#44337a"/>
<rect x="548" y="116" width="14" height="14" rx="2" fill="#44337a"/>
<rect x="564" y="20" width="14" height="14" rx="2" fill="#44337a"/>
<rect x="564" y="36" width="14" height="14" rx="2" fill="#8b5cf6"/>
<rect x="564" y="52" width="14" height="14" rx="2" fill="#8b5cf6"/>
<rect x="564" y="68" width="14" height="14" rx="2" fill="#44337a"/>
<rect x="564" y="84" width="14" height="14" rx="2" fill="#44337a"/>
<rect x="564" y="100" width="14" height="14" rx="2" fill="#44337a"/>
<rect x="564" y="116" width="14" height="14" rx="2" fill="#44337a"/>
<rect x="580" y="20" width="14" height="14" rx="2" fill="#5b21b6"/>
<rect x="580" y="36" width="14" height="14" rx="2" fill="#44337a"/>
<rect x="580" y="52" width="14" height="14" rx="2" fill="#44337a"/>
<rect x="580" y="68" width="14" height="14" rx="2" fill="#44337a"/>
<rect x="580" y="84" width="14" height="14" rx="2" fill="#8b5cf6"/>
<rect x="580" y="100" width="14" height="14" rx="2" fill="#44337a"/>
<rect x="580" y="116" width="14" height="14" rx="2" fill="#44337a"/>
<rect x="596" y="20" width="14" height="14" rx="2" fill="#44337a"/>
<rect x="596" y="36" width="14" height="14" rx="2" fill="#5b21b6"/>
<rect x="596" y="52" width="14" height="14" rx="2" fill="#ff79c6"/>
<rect x="596" y="68" width="14" height="14" rx="2" fill="#44337a"/>
<rect x="596" y="84" width="14" height="14" rx="2" fill="#44337a"/>
<rect x="596" y="100" width="14" height="14" rx="2" fill="#44337a"/>
<rect x="596" y="116" width="14" height="14" rx="2" fill="#44337a"/>
<rect x="612" y="20" width="14" height="14" rx="2" fill="#44337a"/>
<rect x="612" y="36" width="14" height="14" rx="2" fill="#44337a"/>
<rect x="612" y="52" width="14" height="14" rx="2" fill="#44337a"/>
<rect x="612" y="68" width="14" height="14" rx="2" fill="#44337a"/>
<rect x="612" y="84" width="14" height="14" rx="2" fill="#ff79c6"/>
<rect x="612" y="100" width="14" height="14" rx="2" fill="#8b5cf6"/>
<rect x="612" y="116" width="14" height="14" rx="2" fill="#44337a"/>
<rect x="628" y="20" width="14" height="14" rx="2" fill="#44337a"/>
<rect x="628" y="36" width="14" height="14" rx="2" fill="#44337a"/>
<rect x="628" y="52" width="14" height="14" rx="2" fill="#5b21b6"/>
<rect x="628" y="68" width="14" height="14" rx="2" fill="#44337a"/>
<rect x="628" y="84" width="14" height="14" rx="2" fill="#44337a"/>
<rect x="628" y="100" width="14" height="14" rx="2" fill="#44337a"/>
<rect x="628" y="116" width="14" height="14" rx="2" fill="#ff79c6"/>
<rect x="644" y="20" width="14" height="14" rx="2" fill="#44337a"/>
<rect x="644" y="36" width="14" height="14" rx="2" fill="#44337a"/>
<rect x="644" y="52" width="14" height="14" rx="2" fill="#ff79c6"/>
<rect x="644" y="68" width="14" height="14" rx="2" fill="#44337a"/>
<rect x="644" y="84" width="14" height="14" rx="2" fill="#44337a"/>
<rect x="644" y="100" width="14" height="14" rx="2" fill="#44337a"/>
<rect x="644" y="116" width="14" height="14" rx="2" fill="#ff79c6"/>
<rect x="660" y="20" width="14" height="14" rx="2" fill="#44337a"/>
<rect x="660" y="36" width="14" height="14" rx="2" fill="#44337a"/>
<rect x="660" y="52" width="14" height="14" rx="2" fill="#8b5cf6"/>
<rect x="660" y="68" width="14" height="14" rx="2" fill="#44337a"/>
<rect x="660" y="84" width="14" height="14" rx="2" fill="#44337a"/>
<rect x="660" y="100" width="14" height="14" rx="2" fill="#44337a"/>
<rect x="660" y="116" width="14" height="14" rx="2" fill="#44337a"/>
<rect x="676" y="20" width="14" height="14" rx="2" fill="#44337a"/>
<rect x="676" y="36" width="14" height="14" rx="2" fill="#ff79c6"/>
<rect x="676" y="52" width="14" height="14" rx="2" fill="#44337a"/>
<rect x="676" y="68" width="14" height="14" rx="2" fill="#8b5cf6"/>
<rect x="676" y="84" width="14" height="14" rx="2" fill="#44337a"/>
<rect x="676" y="100" width="14" height="14" rx="2" fill="#8b5cf6"/>
<rect x="676" y="116" width="14" height="14" rx="2" fill="#44337a"/>
<rect x="692" y="20" width="14" height="14" rx="2" fill="#44337a"/>
<rect x="692" y="36" width="14" height="14" rx="2" fill="#44337a"/>
<rect x="692" y="52" width="14" height="14" rx="2" fill="#44337a"/>
<rect x="692" y="68" width="14" height="14" rx="2" fill="#44337a"/>
<rect x="692" y="84" width="14" height="14" rx="2" fill="#44337a"/>
<rect x="692" y="100" width="14" height="14" rx="2" fill="#44337a"/>
<rect x="692" y="116" width="14" height="14" rx="2" fill="#44337a"/>
<rect x="708" y="20" width="14" height="14" rx="2" fill="#44337a"/>
<rect x="708" y="36" width="14" height="14" rx="2" fill="#44337a"/>
<rect x="708" y="52" width="14" height="14" rx="2" fill="#44337a"/>
<rect x="708" y="68" width="14" height="14" rx="2" fill="#5b21b6"/>
<rect x="708" y="84" width="14" height="14" rx="2" fill="#8b5cf6"/>
<rect x="708" y="100" width="14" height="14" rx="2" fill="#44337a"/>
<rect x="708" y="116" width="14" height="14" rx="2" fill="#44337a"/>
<rect x="724" y="20" width="14" height="14" rx="2" fill="#44337a"/>
<rect x="724" y="36" width="14" height="14" rx="2" fill="#ff79c6"/>
<rect x="724" y="52" width="14" height="14" rx="2" fill="#44337a"/>
<rect x="724" y="68" width="14" height="14" rx="2" fill="#44337a"/>
<rect x="724" y="84" width="14" height="14" rx="2" fill="#44337a"/>
<rect x="724" y="100" width="14" height="14" rx="2" fill="#ff79c6"/>
<rect x="724" y="116" width="14" height="14" rx="2" fill="#44337a"/>
<rect x="740" y="20" width="14" height="14" rx="2" fill="#44337a"/>
<rect x="740" y="36" width="14" height="14" rx="2" fill="#8b5cf6"/>
<rect x="740" y="52" width="14" height="14" rx="2" fill="#ff79c6"/>
<rect x="740" y="68" width="14" height="14" rx="2" fill="#44337a"/>
<rect x="740" y="84" width="14" height="14" rx="2" fill="#44337a"/>
<rect x="740" y="100" width="14" height="14" rx="2" fill="#44337a"/>
<rect x="740" y="116" width="14" height="14" rx="2" fill="#ff79c6"/>
<rect x="756" y="20" width="14" height="14" rx="2" fill="#44337a"/>
<rect x="756" y="36" width="14" height="14" rx="2" fill="#44337a"/>
<rect x="756" y="52" width="14" height="14" rx="2" fill="#44337a"/>
<rect x="756" y="68" width="14" height="14" rx="2" fill="#44337a"/>
<rect x="756" y="84" width="14" height="14" rx="2" fill="#44337a"/>
<rect x="756" y="100" width="14" height="14" rx="2" fill="#44337a"/>
<rect x="756" y="116" width="14" height="14" rx="2" fill="#44337a"/>
<rect x="772" y="20" width="14" height="14" rx="2" fill="#44337a"/>
<rect x="772" y="36" width="14" height="14" rx="2" fill="#8b5cf6"/>
<rect x="772" y="52" width="14" height="14" rx="2" fill="#44337a"/>
<rect x="772" y="68" width="14" height="14" rx="2" fill="#44337a"/>
<rect x="772" y="84" width="14" height="14" rx="2" fill="#8b5cf6"/>
<rect x="772" y="100" width="14" height="14" rx="2" fill="#44337a"/>
<rect x="772" y="116" width="14" height="14" rx="2" fill="#8b5cf6"/>
<rect x="788" y="20" width="14" height="14" rx="2" fill="#44337a"/>
<rect x="788" y="36" width="14" height="14" rx="2" fill="#44337a"/>
<rect x="788" y="52" width="14" height="14" rx="2" fill="#44337a"/>
<rect x="788" y="68" width="14" height="14" rx="2" fill="#44337a"/>
<rect x="788" y="84" width="14" height="14" rx="2" fill="#44337a"/>
<rect x="788" y="100" width="14" height="14" rx="2" fill="#ff79c6"/>
<rect x="788" y="116" width="14" height="14" rx="2" fill="#44337a"/>
<rect x="804" y="20" width="14" height="14" rx="2" fill="#44337a"/>
<rect x="804" y="36" width="14" height="14" rx="2" fill="#ff79c6"/>
<rect x="804" y="52" width="14" height="14" rx="2" fill="#44337a"/>
<rect x="804" y="68" width="14" height="14" rx="2" fill="#44337a"/>
<rect x="804" y="84" width="14" height="14" rx="2" fill="#44337a"/>
<rect x="804" y="100" width="14" height="14" rx="2" fill="#44337a"/>
<rect x="804" y="116" width="14" height="14" rx="2" fill="#ff79c6"/>
<rect x="820" y="20" width="14" height="14" rx="2" fill="#44337a"/>
<rect x="820" y="36" width="14" height="14" rx="2" fill="#44337a"/>
<rect x="820" y="52" width="14" height="14" rx="2" fill="#44337a"/>
<rect x="820" y="68" width="14" height="14" rx="2" fill="#44337a"/>
<rect x="820" y="84" width="14" height="14" rx="2" fill="#44337a"/>
<rect x="820" y="100" width="14" height="14" rx="2" fill="#44337a"/>
<rect x="820" y="116" width="14" height="14" rx="2" fill="#5b21b6"/>
<rect x="836" y="20" width="14" height="14" rx="2" fill="#8b5cf6"/>
<rect x="836" y="36" width="14" height="14" rx="2" fill="#44337a"/>
<rect x="836" y="52" width="14" height="14" rx="2" fill="#ff79c6"/>
<rect x="836" y="68" width="14" height="14" rx="2" fill="#ff79c6"/>
<rect x="836" y="84" width="14" height="14" rx="2" fill="#44337a"/>
<rect x="836" y="100" width="14" height="14" rx="2" fill="#44337a"/>
<rect x="836" y="116" width="14" height="14" rx="2" fill="#44337a"/>
<rect x="214" y="22" width="4" height="4" rx="1" fill="#0f0524"/>
<rect x="220" y="22" width="4" height="4" rx="1" fill="#0f0524"/>
</svg>